# xmcd
#
# Track frame offsets: 
#        150
#        17328
#        34956
#        54459
#        78312
#        98115
#        121593
#
# Disc length: 1979 seconds
#
# Revision: 0
# Processed by: cddbd v1.5.2PL0 Copyright (c) Steve Scherf et al.
# Submitted via: ExactAudioCopy v1.3
#
DISCID=4607b907
DTITLE=Marco da Rold's Ghost Train - Off Course We Go!
DYEAR=2019
DGENRE=Blues Rock
TTITLE0=Unchained
TTITLE1=Liquors Lips And Lead
TTITLE2=Drown Me
TTITLE3=The Humming Trail
TTITLE4=The Groundbreakers
TTITLE5=Your Love Ahead
TTITLE6=Up And Down The Canyon
EXTD=
EXTT0=
EXTT1=
EXTT2=
EXTT3=
EXTT4=
EXTT5=
EXTT6=
PLAYORDER=
